<svg width="24" height="24" viewBox="0 0 24 24" fill="none" xmlns="http://www.w3.org/2000/svg">
<path d="M3.91391 15.9142L4.44424 15.3839L4.44424 15.3839L3.91391 15.9142ZM8.08549 20.0858L7.55516 20.6161H7.55516L8.08549 20.0858ZM20.0855 8.08579L20.6158 7.55546V7.55546L20.0855 8.08579ZM15.9139 3.91422L16.4442 3.38389V3.38389L15.9139 3.91422ZM13.0855 3.91422L12.5552 3.38389V3.38389L13.0855 3.91422ZM10.2194 5.71967C9.92647 6.01257 9.92647 6.48744 10.2194 6.78033C10.5123 7.07323 10.9871 7.07323 11.28 6.78033L10.7497 6.25L10.2194 5.71967ZM6.78003 11.2803C7.07292 10.9874 7.07292 10.5126 6.78003 10.2197C6.48713 9.92678 6.01226 9.92678 5.71937 10.2197L6.2497 10.75L6.78003 11.2803ZM3.91391 13.0858L3.38358 12.5555H3.38358L3.91391 13.0858ZM17.2194 12.7197C16.9265 13.0126 16.9265 13.4874 17.2194 13.7803C17.5123 14.0732 17.9871 14.0732 18.28 13.7803L17.7497 13.25L17.2194 12.7197ZM20.0855 10.9142L20.6158 11.4445L20.0855 10.9142ZM10.9139 20.0858L11.4442 20.6161L10.9139 20.0858ZM13.78 18.2803C14.0729 17.9874 14.0729 17.5126 13.78 17.2197C13.4871 16.9268 13.0123 16.9268 12.7194 17.2197L13.2497 17.75L13.78 18.2803ZM8.46937 14.4697C8.17647 14.7626 8.17647 15.2374 8.46937 15.5303C8.76226 15.8232 9.23713 15.8232 9.53003 15.5303L8.9997 15L8.46937 14.4697ZM15.53 9.53033C15.8229 9.23744 15.8229 8.76257 15.53 8.46967C15.2371 8.17678 14.7623 8.17678 14.4694 8.46967L14.9997 9L15.53 9.53033ZM3.91391 15.9142L3.38358 16.4445L7.55516 20.6161L8.08549 20.0858L8.61582 19.5555L4.44424 15.3839L3.91391 15.9142ZM20.0855 8.08579L20.6158 7.55546L16.4442 3.38389L15.9139 3.91422L15.3836 4.44455L19.5552 8.61612L20.0855 8.08579ZM13.0855 3.91422L12.5552 3.38389L10.2194 5.71967L10.7497 6.25L11.28 6.78033L13.6158 4.44455L13.0855 3.91422ZM6.2497 10.75L5.71937 10.2197L3.38358 12.5555L3.91391 13.0858L4.44424 13.6161L6.78003 11.2803L6.2497 10.75ZM17.7497 13.25L18.28 13.7803L20.6158 11.4445L20.0855 10.9142L19.5552 10.3839L17.2194 12.7197L17.7497 13.25ZM10.9139 20.0858L11.4442 20.6161L13.78 18.2803L13.2497 17.75L12.7194 17.2197L10.3836 19.5555L10.9139 20.0858ZM20.0855 8.08579L19.5552 8.61612C20.0433 9.10428 20.0433 9.89573 19.5552 10.3839L20.0855 10.9142L20.6158 11.4445C21.6898 10.3706 21.6898 8.6294 20.6158 7.55546L20.0855 8.08579ZM8.08549 20.0858L7.55516 20.6161C8.6291 21.6901 10.3703 21.6901 11.4442 20.6161L10.9139 20.0858L10.3836 19.5555C9.89542 20.0436 9.10397 20.0436 8.61582 19.5555L8.08549 20.0858ZM3.91391 15.9142L4.44424 15.3839C3.95609 14.8957 3.95609 14.1043 4.44424 13.6161L3.91391 13.0858L3.38358 12.5555C2.30964 13.6294 2.30964 15.3706 3.38358 16.4445L3.91391 15.9142ZM15.9139 3.91422L16.4442 3.38389C15.3703 2.30994 13.6291 2.30995 12.5552 3.38389L13.0855 3.91422L13.6158 4.44455C14.104 3.95639 14.8954 3.95639 15.3836 4.44455L15.9139 3.91422ZM8.9997 15L9.53003 15.5303L15.53 9.53033L14.9997 9L14.4694 8.46967L8.46937 14.4697L8.9997 15Z" fill="#7B7B7B"/>
</svg>
