<svg width="24" height="24" viewBox="0 0 24 24" fill="none" xmlns="http://www.w3.org/2000/svg">
<path d="M3 6.6C3 4.61 4.61004 3 6.60004 3C8.59004 3 10.2 4.61 10.2 6.6C10.2 8.59 8.59004 10.2 6.60004 10.2C4.62004 10.2 3 8.59 3 6.6ZM17.4 10.2C19.39 10.2 21 8.59 21 6.6C21 4.61 19.39 3 17.4 3C15.41 3 13.8 4.61 13.8 6.6C13.8 8.59 15.42 10.2 17.4 10.2ZM6.60004 21C8.59004 21 10.2 19.39 10.2 17.4C10.2 15.41 8.59004 13.8 6.60004 13.8C4.61004 13.8 3 15.41 3 17.4C3 19.39 4.62004 21 6.60004 21ZM17.4 21C19.39 21 21 19.39 21 17.4C21 15.41 19.39 13.8 17.4 13.8C15.41 13.8 13.8 15.41 13.8 17.4C13.8 19.39 15.42 21 17.4 21Z" stroke="#F1F1F1" stroke-width="1.5" stroke-miterlimit="10" stroke-linecap="round"/>
</svg>
