<svg width="50" height="50" viewBox="0 0 50 50" fill="none" xmlns="http://www.w3.org/2000/svg">
<path d="M46.8086 0C48.5712 0 50 1.42883 50 3.19141V46.8086C50 48.5712 48.5712 50 46.8086 50H3.19141C1.42883 50 0 48.5712 0 46.8086V3.19141C4.90524e-05 1.42886 1.42886 4.92533e-05 3.19141 0H46.8086ZM31.8789 34.9199C30.0011 34.9199 28.4786 36.4418 28.4785 38.3193V38.7354C28.4787 40.6126 30.0005 42.1353 31.8779 42.1357H40.3896C42.2672 42.1354 43.7889 40.6129 43.7891 38.7354L43.79 38.3193C43.7896 36.4419 42.267 34.9204 40.3896 34.9199H31.8789ZM13.8115 7.37891C12.4837 6.05126 10.3308 6.05128 9.00293 7.37891L8.70898 7.67285C7.38135 9.00076 7.38139 11.1535 8.70898 12.4814L12.0225 15.7949L8.85547 18.9629C7.44648 20.3719 7.44659 22.6564 8.85547 24.0654C10.2648 25.4741 12.5491 25.4744 13.958 24.0654L19.3711 18.6514C19.4266 18.6026 19.4821 18.553 19.5352 18.5L19.8291 18.2061C21.1547 16.8805 21.1564 14.7317 19.835 13.4033C19.7859 13.3478 19.7347 13.2924 19.6816 13.2393C19.6284 13.186 19.5732 13.1349 19.5176 13.0859L16.835 10.4033L13.8115 7.37891Z" fill="url(#paint0_linear_10647_478)"/>
<defs>
<linearGradient id="paint0_linear_10647_478" x1="25" y1="0" x2="25" y2="50" gradientUnits="userSpaceOnUse">
<stop stop-color="#00E03D"/>
<stop offset="1" stop-color="#00D1D0"/>
</linearGradient>
</defs>
</svg>
