<svg xmlns="http://www.w3.org/2000/svg" version="1.1" xmlns:xlink="http://www.w3.org/1999/xlink" width="512" height="512" x="0" y="0" viewBox="0 0 512 512" style="enable-background:new 0 0 512 512" xml:space="preserve" class=""><g><path d="M366 86H146c-33.084 0-60 26.916-60 60v220c0 33.084 26.916 60 60 60h220c33.084 0 60-26.916 60-60V146c0-33.084-26.916-60-60-60zm40 280c0 22.056-17.944 40-40 40H146c-22.056 0-40-17.944-40-40V146c0-22.056 17.944-40 40-40h220c22.056 0 40 17.944 40 40z" fill="#00e03d" opacity="1" data-original="#000000" class=""></path></g></svg>